<?xml version="1.0" encoding="UTF-8"?>
<svg width="30px" height="30px" viewBox="0 0 30 30" version="1.1" xmlns="http://www.w3.org/2000/svg" xmlns:xlink="http://www.w3.org/1999/xlink">
    <!-- Generator: Sketch 52.5 (67469) - http://www.bohemiancoding.com/sketch -->
    <title>github-icon</title>
    <desc>Created with Sketch.</desc>
    <g id="Page-1" stroke="none" stroke-width="1" fill="none" fill-rule="evenodd">
        <rect id="bg" stroke="#979797" fill="#D8D8D8" x="-834.5" y="-92.5" width="994" height="576"></rect>
        <g id="github-icon" transform="translate(4.000000, 3.000000)" fill="#FFFFFF" fill-rule="nonzero">
            <path d="M11.5000952,0 C5.14960051,0 0,5.27895404 0,11.791148 C0,17.000786 3.29512732,21.4206116 7.864467,22.9797345 C8.43920513,23.0888828 8.65020908,22.7239485 8.65020908,22.4125144 C8.65020908,22.1313451 8.63954461,21.20251 8.63459325,20.2172459 C5.43525565,20.9305178 4.76015733,18.8260435 4.76015733,18.8260435 C4.23702751,17.4631534 3.48327884,17.1007573 3.48327884,17.1007573 C2.4398758,16.3689361 3.56192919,16.3839707 3.56192919,16.3839707 C4.71673775,16.46715 5.32480232,17.5990518 5.32480232,17.5990518 C6.35049474,19.4016596 8.01510247,18.8805201 8.67134756,18.5792393 C8.77456428,17.8171533 9.07259788,17.29699 9.40148207,17.0025433 C6.84715382,16.7043866 4.16199546,15.6933486 4.16199546,11.175309 C4.16199546,9.88798302 4.61123575,8.83613651 5.34689299,8.01039686 C5.22748913,7.71341176 4.83385635,6.5141465 5.45829849,4.89000316 C5.45829849,4.89000316 6.42400333,4.57310188 8.62164355,6.09864071 C9.5389775,5.83738756 10.5227738,5.70637046 11.5000952,5.70187958 C12.4774167,5.70637046 13.4619747,5.83738756 14.3810225,6.09864071 C16.5759967,4.57310188 17.5403684,4.89000316 17.5403684,4.89000316 C18.1663341,6.5141465 17.7725109,7.71341176 17.653107,8.01039686 C18.3904782,8.83613651 18.8366714,9.88798302 18.8366714,11.175309 C18.8366714,15.7040877 16.1463713,16.7012626 13.5855682,16.9931709 C13.9980543,17.3590817 14.3655971,18.0766491 14.3655971,19.1767241 C14.3655971,20.7543965 14.3522667,22.0241493 14.3522667,22.4125144 C14.3522667,22.7262916 14.5592713,23.0939595 15.1421982,22.9781724 C19.7090622,21.4172921 23,16.9990287 23,11.791148 C23,5.27895404 17.8511613,0 11.5000952,0 Z" id="Shape"></path>
        </g>
    </g>
</svg>