<?xml version="1.0" encoding="UTF-8" ?>
<svg width="30px" height="30px" viewBox="0 0 30 30" version="1.1" xmlns="http://www.w3.org/2000/svg" xmlns:xlink="http://www.w3.org/1999/xlink">
    <g id="linkedin" transform="translate(7.000000, 6.000000)" fill="#FFFFFF">
        <path d="M2.00056529,0 C3.10382425,0 4,0.916904803 4,2.04564452 C4,3.17521043 3.10382425,4.0924457 2.00056529,4.0924457 C0.895044993,4.0924457 0,3.17521043 0,2.04564452 C0,0.916904803 0.895044993,0 2.00056529,0 Z M0.274926323,5.64469001 L3.72491211,5.64469001 L3.72491211,17 L0.274926323,17 L0.274926323,5.64469001 Z" id="Shape" fill-rule="nonzero"></path>
        <path d="M6,6.26706988 L9.38396742,6.26706988 L9.38396742,7.73345541 L9.4308729,7.73345541 C9.90157947,6.88976443 11.0524157,6 12.7684302,6 C16.3405152,6 17,8.22292738 17,11.1127486 L17,17 L13.4749857,17 L13.4749857,11.7805795 C13.4749857,10.5353466 13.450707,8.93448904 11.6418725,8.93448904 C9.80611694,8.93448904 9.52501425,10.2904545 9.52501425,11.690463 L9.52501425,17 L6,17 L6,6.26706988" id="Path"></path>
    </g>
</svg>
