<?xml version="1.0" encoding="UTF-8"?>
<svg width="30px" height="30px" viewBox="0 0 30 30" version="1.1" xmlns="http://www.w3.org/2000/svg" xmlns:xlink="http://www.w3.org/1999/xlink">
    <!-- Generator: Sketch 52.5 (67469) - http://www.bohemiancoding.com/sketch -->
    <title>twitter-icon</title>
    <desc>Created with Sketch.</desc>
    <g id="Page-1" stroke="none" stroke-width="1" fill="none" fill-rule="evenodd">
        <rect id="bg" stroke="#979797" fill="#D8D8D8" x="-652.5" y="-94.5" width="994" height="576"></rect>
        <g id="twitter" transform="translate(4.000000, 7.000000)" fill="#FFFFFF">
            <path d="M22,1.89404892 C21.190541,2.21530485 20.3206481,2.43242806 19.4076228,2.53007949 C20.3395589,2.030156 21.0551885,1.23857448 21.3922016,0.295402785 C20.5201361,0.758238888 19.5541607,1.09440179 18.5260616,1.27558985 C17.7026811,0.490561622 16.5296536,0 15.2314935,0 C12.7387395,0 10.7177878,1.80849589 10.7177878,4.03913979 C10.7177878,4.35571479 10.7577819,4.66400814 10.8347123,4.95962696 C7.0834705,4.79118544 3.75767951,3.18310544 1.53152639,0.739371133 C1.14301181,1.33593785 0.920428695,2.02979593 0.920428695,2.77003124 C0.920428695,4.1713581 1.71733421,5.40770013 2.9284246,6.13202027 C2.18849263,6.1110641 1.49257836,5.92937195 0.883975271,5.62683974 C0.883653392,5.6436911 0.883653392,5.66061446 0.883653392,5.67760984 C0.883653392,7.63467128 2.43948206,9.26723621 4.50429057,9.638254 C4.125513,9.7305764 3.72677859,9.77990622 3.31508834,9.77990622 C3.0242657,9.77990622 2.74149018,9.75462914 2.46595705,9.70745977 C3.04027946,11.3122272 4.70715827,12.4800115 6.68224148,12.512634 C5.13751783,13.5959456 3.19132375,14.2416981 1.07670361,14.2416981 C0.712410841,14.2416981 0.353107282,14.2226143 0,14.1853109 C1.99745419,15.3313469 4.36998427,16 6.91890706,16 C15.2209517,16 19.7608105,9.84515117 19.7608105,4.50752099 C19.7608105,4.33238215 19.7564651,4.15817948 19.7477742,3.98498501 C20.6295768,3.41549568 21.3948572,2.70406611 22,1.89404892" id="Path"></path>
        </g>
    </g>
</svg>