<svg viewBox="0 0 512 512" fill="none"
  xmlns="http://www.w3.org/2000/svg">
  <path fill-rule="evenodd" clip-rule="evenodd" d="M436.547 0H75.452v75.454H0V436.55h75.452V512h361.095v-75.451H512V75.454h-75.453V0Z" fill="#202020"/>
  <path fill-rule="evenodd" clip-rule="evenodd" d="M391.033 137.433h14.183v17.338h14.181v89.823h-14.183v-77.22h-14.181v-29.941ZM119.989 244.592h-14.183v29.941h14.183v-29.941Zm285.225 0h-14.183v29.941h14.183v-29.941ZM119.989 137.435h-14.183v29.941h14.183v-29.941Zm256.861 29.942h14.182v29.941H376.85v-29.941Zm-242.68 0h-14.183v29.941h14.183v-29.941Zm-28.365-12.606H91.623v89.823h14.182v-89.823Zm271.043 119.762h14.182v29.941h-14.182v-29.941Zm-242.678 0h-14.183v29.941h14.183v-29.941Zm214.315 44.123h14.183v29.941h-14.183v-29.941Zm-185.948 0h-14.183v29.941h14.183v-29.941Zm200.132-14.181h14.182v14.183h-14.182v-14.183Zm-214.316 0h-14.182v14.183h14.182v-14.183Zm214.316-107.156h14.182v14.182h-14.182v-14.182Zm-214.316 0h-14.182v14.182h14.181v14.18h31.517v-14.18h14.18v-14.182h-14.182v14.179h-31.514v-14.179Zm168.614-.002h14.182v14.182h-14.182v-14.182Zm14.182 47.275h-14.182v14.182h14.182v-14.182Zm-28.364 14.183h14.183v14.183h-14.183v-14.183Zm-94.553 0H194.05v14.183h14.182v-14.183Zm-14.179-14.183h-14.182v14.182h14.182v-14.182ZM334.3 348.598h14.182v14.183H334.3v-14.183Zm-157.582 0h-14.183v14.183h14.183v-14.183Zm143.403 14.183h14.182v14.183h-14.182v-14.183Zm-129.222.002h-14.182v14.183h14.182v-14.183Zm115.036 14.18h14.183v14.182h-14.183v-14.182Zm-100.853 0H190.9v14.182h14.182v-14.182Zm.001 14.185h100.854v14.183H205.083v-14.183Zm157.584-179.646H331.15v14.183h31.517v-14.183Zm-45.701-28.364H194.05v14.182h122.916v-14.182Zm-92.974 75.637h60.669v14.183h-60.669v-14.183Zm16.548 14.183h-32.305v14.183h32.305v-14.183Zm29.941 0h32.305v14.183h-32.305v-14.183Zm60.666-42.55h-151.28v14.183h151.28v-14.183Z" fill="#F7F7F7"/>
</svg>
