<?xml version="1.0" standalone="no"?>
<!DOCTYPE svg PUBLIC "-//W3C//DTD SVG 20010904//EN"
 "http://www.w3.org/TR/2001/REC-SVG-20010904/DTD/svg10.dtd">
<svg version="1.0" xmlns="http://www.w3.org/2000/svg"
 width="512.000000pt" height="512.000000pt" viewBox="0 0 512.000000 512.000000"
 preserveAspectRatio="xMidYMid meet">
<metadata>
Created by potrace 1.14, written by Peter Selinger 2001-2017
</metadata>
<g transform="translate(0.000000,512.000000) scale(0.100000,-0.100000)"
fill="#000000" stroke="none">
<path d="M750 4745 l0 -375 -375 0 -375 0 0 -1810 0 -1810 375 0 375 0 0 -375
0 -375 1810 0 1810 0 0 375 0 375 375 0 375 0 0 1810 0 1810 -375 0 -375 0 0
375 0 375 -1810 0 -1810 0 0 -375z m450 -1145 l0 -150 70 0 70 0 0 -150 0
-150 70 0 70 0 0 -70 0 -70 -70 0 -70 0 0 70 0 70 -70 0 -70 0 0 150 0 150
-70 0 -70 0 0 -390 0 -390 70 0 70 0 0 -145 0 -145 -70 0 -70 0 0 145 0 145
-70 0 -70 0 0 450 0 450 70 0 70 0 0 90 0 90 70 0 70 0 0 -150z m2850 60 l0
-90 70 0 70 0 0 -450 0 -451 -67 3 -68 3 -3 388 -2 387 -70 0 -70 0 0 -150 0
-150 -70 0 -70 0 0 -70 0 -70 -70 0 -70 0 0 70 0 70 70 0 70 0 0 150 0 150 70
0 70 0 0 150 0 150 70 0 70 0 0 -90z m-880 -440 l0 -70 70 0 70 0 0 -70 0 -70
-70 0 -70 0 0 70 0 70 -615 0 -615 0 0 -70 0 -70 -70 0 -70 0 0 70 0 70 70 0
70 0 0 70 0 70 615 0 615 0 0 -70z m-1370 -290 l0 -71 -157 3 -158 3 -3 68 -3
67 161 0 160 0 0 -70z m1828 3 l-3 -68 -157 -3 -158 -3 0 71 0 70 160 0 161 0
-3 -67z m-318 -258 l0 -145 -70 0 -70 0 0 -70 0 -70 -70 0 -70 0 0 -70 0 -70
-160 0 -160 0 0 70 0 70 -155 0 -155 0 0 -70 0 -70 -160 0 -160 0 0 70 0 70
-70 0 -70 0 0 70 0 70 -70 0 -70 0 0 145 0 145 755 0 755 0 0 -145z m740 -150
l0 -145 -70 0 -70 0 0 145 0 145 70 0 70 0 0 -145z m-2710 -300 l0 -145 -70 0
-70 0 0 145 0 145 70 0 70 0 0 -145z m2570 0 l0 -145 -70 0 -70 0 0 145 0 145
70 0 70 0 0 -145z m-2430 -225 l0 -70 70 0 70 0 0 -150 0 -151 -67 3 -68 3 -3
148 -3 147 -69 0 -70 0 0 70 0 70 70 0 70 0 0 -70z m2290 0 l0 -70 -70 0 -69
0 -3 -147 -3 -148 -67 -3 -68 -3 0 151 0 150 70 0 70 0 0 70 0 70 70 0 70 0 0
-70z m-2000 -440 l0 -70 70 0 70 0 0 -70 0 -70 70 0 70 0 0 -70 0 -70 505 0
505 0 0 70 0 70 70 0 70 0 0 70 0 70 70 0 70 0 0 70 0 70 70 0 70 0 0 -70 0
-70 -70 0 -70 0 0 -70 0 -70 -70 0 -70 0 0 -70 0 -70 -70 0 -70 0 0 -70 0 -70
-505 0 -505 0 0 70 0 70 -70 0 -70 0 0 70 0 70 -70 0 -70 0 0 70 0 70 -70 0
-70 0 0 70 0 70 70 0 70 0 0 -70z"/>
<path d="M1940 2600 l0 -70 70 0 70 0 0 -70 0 -70 80 0 80 0 0 70 0 70 305 0
305 0 0 -70 0 -70 90 0 90 0 0 70 0 70 70 0 70 0 0 70 0 70 -615 0 -615 0 0
-70z"/>
</g>
</svg>
