<?xml version="1.0" encoding="utf-8"?>
<!-- Generator: Adobe Illustrator 16.0.4, SVG Export Plug-In . SVG Version: 6.00 Build 0)  -->
<!DOCTYPE svg PUBLIC "-//W3C//DTD SVG 1.1//EN" "http://www.w3.org/Graphics/SVG/1.1/DTD/svg11.dtd">
<svg version="1.1" id="main_composition" xmlns="http://www.w3.org/2000/svg" xmlns:xlink="http://www.w3.org/1999/xlink" x="0px"
	 y="0px" width="199.94px" height="62.87px" viewBox="0 0 199.94 62.87" enable-background="new 0 0 199.94 62.87"
	 xml:space="preserve">
<g id="logo_without_strokes_1_">
	<g id="f_1_">
		<path fill="#FFFFFF" d="M6.776,62.87H0V13.868C0,5.313,5.01,0,13.073,0h5.768v6.78h-5.502c-3.986,0-6.562,2.714-6.562,6.912v0.746
			h12.153v6.781H6.776V62.87z"/>
	</g>
	<g id="a_1_">
		<path fill="#FFFFFF" d="M59.061,18.545c-3.769-4.106-8.096-4.106-11.914-4.106H22.098v6.781h26.369
			c2.782,0,4.359,0.309,5.824,2.09c1.338,1.574,1.62,3.587,1.62,4.998v0.836H35.701c-8.318,0-13.692,5.375-13.692,13.692v6.692
			c0,7.978,5.573,13.342,13.868,13.342h13.383c4.412,0,7.67-1.339,10.259-4.213c2.846-3.174,3.082-6.462,3.082-9.835V28.835
			C62.6,24.694,61.383,21.142,59.061,18.545z M55.82,49.442c0,4.6-1.996,6.649-6.471,6.649H35.701c-1.725,0-3.741-0.722-5.167-1.858
			c-1.483-1.144-1.747-2.272-1.747-4.881v-6.606c0-4.335,2.423-6.822,6.65-6.822H55.82V49.442z"/>
	</g>
	<g id="d_1_">
		<path fill="#FFFFFF" d="M104.507,0.09v14.349H85.619c-9.908,0-15.364,5.24-15.364,14.752v18.929c0,3.654,0.25,7.208,3.258,10.542
			c3.778,4.209,7.823,4.209,12.105,4.209h9.863c13.062,0,15.806-7.828,15.806-14.396V0.09H104.507z M104.507,48.295
			c0,1.929,0,7.797-9.729,7.797h-9.245c-7.076,0-8.498-2.511-8.498-6.563V29.274c0-5.42,2.75-8.055,8.408-8.055h19.064V48.295z"/>
	</g>
	<g id="e_1_">
		<path fill="#FFFFFF" d="M159.71,28.308c0-3.498-0.262-6.908-3.425-10.182c-3.4-3.402-7.286-3.688-10.974-3.688h-11.798
			c-3.137,0-6.423,0.27-9.197,2.225c-3.508,2.451-5.286,6.695-5.286,12.611v18.935c0,12.994,8.398,14.661,15.716,14.661h24.876
			v-6.778h-25.493c-2.435,0-4.42-0.094-6.005-1.28c-2.02-1.464-2.204-3.706-2.269-7.224c-0.002-0.109-0.006-0.223-0.008-0.336
			l33.862-14.864V28.308z M125.809,39.845V28.483c0-5.362,2.247-7.264,8.586-7.264h9.86c6.193,0,8.536,1.835,8.585,6.756
			L125.809,39.845z"/>
	</g>
	<g id="i_2_">
		<rect id="i_3_" x="166.217" y="14.438" fill="#FFFFFF" width="6.782" height="48.432"/>
		<path id="i_dot__x28_top_x29__1_" fill="#FFFFFF" d="M169.344,8.982c-2.5,0-4.182-2.346-4.182-4.536
			c0-2.139,1.566-4.446,4.095-4.446c2.231,0,4.622,1.752,4.622,4.36C173.879,6.909,171.845,8.982,169.344,8.982z"/>
	</g>
	<polygon id="t_1_" fill="#FFFFFF" points="187.438,62.87 180.655,62.87 180.655,0 187.438,0 187.438,14.438 199.94,14.438 
		199.94,21.22 187.438,21.22 	"/>
</g>
</svg>
