<?xml version="1.0" encoding="UTF-8" ?>
<svg width="30px" height="30px" viewBox="0 0 30 30" version="1.1" xmlns="http://www.w3.org/2000/svg" xmlns:xlink="http://www.w3.org/1999/xlink">
    <g id="stackoverflow-icon" transform="translate(6.000000, 4.000000)" fill="#FFFFFF">
        <polygon id="Path" points="14.2273381 19.0064725 14.2273381 13 16 13 16 21 0 21 0 13 1.77266187 13 1.77266187 19.0064725"></polygon>
        <path d="M4.18024263,12.7918424 L12.6967071,14.6807314 L13.0571924,12.8635725 L4.5407279,10.9746835 L4.18024263,12.7918424 Z M5.3067591,8.48804498 L13.1923743,12.3853727 L13.9133449,10.7116737 L6.02772964,6.79043601 L5.3067591,8.48804498 Z M7.49220103,4.37552742 L14.1837089,10.281294 L15.287695,8.87060481 L8.5961872,2.96483826 L7.49220103,4.37552742 Z M11.8180243,0 L10.4211439,1.09985935 L15.6031196,8.51195502 L17,7.41209562 L11.8180243,0 Z M4,17 L12.6967071,17 L12.6967071,15.1589311 L4,15.1589311 L4,17 Z" id="Shape" fill-rule="nonzero"></path>
    </g>
</svg>
